<svg xmlns="http://www.w3.org/2000/svg" width="47" height="47" viewBox="0 0 47 47" fill="#fff"><path d="M27.764 27.77H3.204V4.28h24.56v8.98l2.137.457V3.982c.638-.37 1.068-1.05 1.068-1.84 0-1.178-.956-2.135-2.136-2.135H2.136C.956.007 0 .964 0 2.143c0 .79.432 1.47 1.068 1.84v24.856c0 .588.478 1.067 1.067 1.067h6.58l-3.84 14.398c-.302 1.14.375 2.31 1.515 2.615.185.05.37.073.552.073.943 0 1.808-.63 2.063-1.586l4.134-15.5h4.69l4.133 15.5c.255.955 1.118 1.586 2.062 1.586.183 0 .367-.023.553-.073 1.14-.304 1.816-1.476 1.514-2.614l-3.84-14.398h6.58c.59 0 1.068-.48 1.068-1.068v-6.387l-2.137-.457v5.775zM36.848 15.5c2.092 0 3.793-1.698 3.793-3.79 0-2.096-1.7-3.793-3.792-3.793-2.09 0-3.79 1.696-3.79 3.792 0 2.092 1.7 3.79 3.79 3.79z"/><path d="M46.855 28.075l-3.922-10.152c-.315-.823-1.108-1.366-1.99-1.366H38.86c-.587 0-1.1.256-1.48.64l.993 7.3-1.525 1.293-1.523-1.293.994-7.3c-.386-.384-.897-.64-1.483-.64H32.98L20.736 13.94c-1.153-.245-2.288.49-2.535 1.644-.245 1.154.49 2.29 1.644 2.535l12.463 2.66c.13.03.262.044.394.047v9.88l-.816 14.024c-.066 1.178.83 2.188 2.01 2.257.04.003.084.004.125.004 1.122 0 2.062-.875 2.13-2.01l.7-12.03.7 12.03c.067 1.135 1.01 2.01 2.133 2.01.04 0 .084 0 .125-.003 1.178-.07 2.076-1.08 2.008-2.256L41 30.707v-5.948l1.876 4.856c.425 1.102 1.664 1.646 2.763 1.223 1.094-.425 1.64-1.66 1.215-2.762zM4.806 15.225v9.077c0 .59.478 1.068 1.067 1.068.59 0 1.068-.48 1.068-1.068v-9.077c0-.59-.477-1.068-1.067-1.068s-1.067.478-1.067 1.068zM9.61 7.75V24.3c0 .592.478 1.07 1.068 1.07.59 0 1.067-.48 1.067-1.07V7.75c0-.59-.478-1.07-1.067-1.07-.59 0-1.068.48-1.068 1.07zM14.416 12.02V24.3c0 .592.478 1.07 1.067 1.07.59 0 1.068-.48 1.068-1.07V12.02c0-.59-.477-1.07-1.067-1.07s-1.067.48-1.067 1.07z"/></svg>