<svg xmlns="http://www.w3.org/2000/svg" width="47" height="47.001" viewBox="0 0 47 47.001" fill="#fff"><path d="M46.64 40.225l-6-5c-.297-.248-.714-.303-1.062-.14-.353.165-.576.52-.576.906v3h-31v-31H11.02c.554 0 1-.446 1-1 0-.306-.137-.58-.354-.765L6.77.35c-.382-.454-1.157-.454-1.538 0l-5 6c-.25.3-.302.714-.137 1.065.164.352.518.576.904.576h3v33c0 1.105.895 2 2 2h33v3c0 .39.225.742.576.906.136.062.28.095.425.095.23 0 .457-.078.64-.23l6-5c.23-.19.36-.472.36-.77 0-.295-.13-.576-.36-.765z"/><path d="M11 30.992c0 1.656 1.343 3 3 3h20c1.657 0 3-1.344 3-3 0-1.658-1.343-3-3-3H14c-1.657 0-3 1.342-3 3zM14 25.99h10c1.658 0 3-1.342 3-3s-1.343-3-3-3H14c-1.657 0-3 1.344-3 3s1.343 3 3 3zM11 14.99c0 1.658 1.343 3 3 3h15c1.657 0 3-1.342 3-3 0-1.657-1.343-3-3-3H14c-1.657 0-3 1.343-3 3z"/></svg>