<svg xmlns="http://www.w3.org/2000/svg" width="47" height="47" viewBox="0 0 47 47" fill="#fff"><path d="M7.37 19.227H2.138c-1.18 0-2.137.957-2.137 2.137v23.5C0 46.044.957 47 2.137 47H7.37c1.18 0 2.137-.957 2.137-2.136v-23.5c0-1.18-.956-2.137-2.136-2.137zM19.87 25.635h-5.235c-1.18 0-2.137.957-2.137 2.137v17.09c0 1.18.956 2.137 2.137 2.137h5.234c1.18 0 2.135-.958 2.135-2.138v-17.09c0-1.18-.956-2.137-2.136-2.137zM32.365 25.635H27.13c-1.18 0-2.135.957-2.135 2.137v17.09c0 1.18.956 2.137 2.136 2.137h5.235c1.18 0 2.137-.958 2.137-2.138v-17.09c0-1.18-.956-2.137-2.137-2.137zM44.863 19.227H39.63c-1.18 0-2.137.957-2.137 2.137v23.5c0 1.18.956 2.136 2.136 2.136h5.233c1.18 0 2.137-.958 2.137-2.136v-23.5c0-1.18-.957-2.137-2.137-2.137zM24.123 12.87v3.846c1.164-.077 2.39-.623 2.39-1.904 0-1.322-1.344-1.71-2.39-1.942zM20.778 8.267c0 .972.723 1.534 2.18 1.826v-3.48c-1.324.04-2.18.818-2.18 1.654z"/><path d="M23.5 0c-6.48 0-11.75 5.272-11.75 11.75 0 6.476 5.27 11.748 11.75 11.748s11.75-5.272 11.75-11.748C35.25 5.272 29.98 0 23.5 0zm.623 18.7V19.9c0 .33-.254.66-.586.66-.328 0-.58-.33-.58-.66V18.7c-3.282-.08-4.915-2.043-4.915-3.578 0-.775.47-1.223 1.203-1.223 2.176 0 .484 2.68 3.713 2.815v-4.06c-2.88-.523-4.624-1.786-4.624-3.942 0-2.64 2.196-4.003 4.624-4.08V3.6c0-.33.25-.66.58-.66.33 0 .585.33.585.66v1.036c1.514.04 4.623.99 4.623 2.895 0 .756-.566 1.202-1.227 1.202-1.265 0-1.247-2.077-3.397-2.117v3.69c2.564.546 4.835 1.303 4.835 4.295 0 2.602-1.942 3.922-4.835 4.1z"/></svg>